<?xml version="1.0" encoding="iso-8859-1"?>
<!-- Generator: Adobe Illustrator 19.0.0, SVG Export Plug-In . SVG Version: 6.00 Build 0)  -->
<svg version="1.1" id="Layer_1" xmlns="http://www.w3.org/2000/svg" xmlns:xlink="http://www.w3.org/1999/xlink" x="0px" y="0px"
	 viewBox="0 0 512 512" style="enable-background:new 0 0 512 512;" xml:space="preserve">
<g>
	<g>
		<path d="M256,0C114.837,0,0,114.837,0,256s114.837,256,256,256s256-114.837,256-256S397.163,0,256,0z M256,478.609
			C133.25,478.609,33.391,378.75,33.391,256S133.25,33.391,256,33.391S478.609,133.25,478.609,256S378.75,478.609,256,478.609z"/>
	</g>
</g>
<g>
	<g>
		<path d="M411.826,256c0-9.217,7.479-16.696,16.696-16.696h15.85c-8.008-91.021-80.654-163.667-171.676-171.676v15.85
			c0,9.217-7.479,16.696-16.696,16.696c-9.217,0-16.696-7.479-16.696-16.696v-15.85c-91.021,8.008-163.667,80.654-171.676,171.676
			h15.85c9.217,0,16.696,7.479,16.696,16.696c0,9.217-7.479,16.696-16.696,16.696h-15.85
			c8.008,91.021,80.654,163.667,171.676,171.676v-15.85c0-9.217,7.479-16.696,16.696-16.696c9.217,0,16.696,7.479,16.696,16.696
			v15.85c91.021-8.008,163.667-80.654,171.676-171.676h-15.85C419.305,272.696,411.826,265.217,411.826,256z M342.929,191.442
			l-47.083,94.498c-0.855,2.139-4.425,6.045-7.679,7.345l-94.499,47.417c-6.344,3.339-14.023,2.003-19.366-3.006
			c-5.01-5.341-6.344-13.023-3.006-19.367l47.415-94.496c1.301-3.252,5.219-6.83,7.347-7.681l94.499-47.081
			c6.344-3.006,14.023-2.003,19.031,3.338C344.932,177.419,345.933,185.098,342.929,191.442z"/>
	</g>
</g>
<g>
</g>
<g>
</g>
<g>
</g>
<g>
</g>
<g>
</g>
<g>
</g>
<g>
</g>
<g>
</g>
<g>
</g>
<g>
</g>
<g>
</g>
<g>
</g>
<g>
</g>
<g>
</g>
<g>
</g>
</svg>
