<?xml version="1.0" encoding="iso-8859-1"?>
<!-- Generator: Adobe Illustrator 19.0.0, SVG Export Plug-In . SVG Version: 6.00 Build 0)  -->
<svg version="1.1" id="Layer_1" xmlns="http://www.w3.org/2000/svg" xmlns:xlink="http://www.w3.org/1999/xlink" x="0px" y="0px"
	 viewBox="0 0 512 512" style="enable-background:new 0 0 512 512;" xml:space="preserve">
<g>
	<path style="fill:#B3404A;" d="M497.537,512H14.463C6.477,512,0,505.523,0,497.537V342.78c0-7.987,6.477-14.463,14.463-14.463
		s14.463,6.477,14.463,14.463v140.294h454.147V28.927H342.78c-7.987,0-14.463-6.477-14.463-14.463S334.793,0,342.78,0h154.757
		C505.523,0,512,6.477,512,14.463v483.073C512,505.523,505.523,512,497.537,512z"/>
	<path style="fill:#B3404A;" d="M14.463,270.463C6.477,270.463,0,263.987,0,256V14.463C0,6.477,6.477,0,14.463,0H256
		c7.987,0,14.463,6.477,14.463,14.463S263.987,28.927,256,28.927H28.927V256C28.927,263.987,22.45,270.463,14.463,270.463z"/>
	<path style="fill:#B3404A;" d="M75.209,270.463c-7.987,0-14.463-6.477-14.463-14.463V75.209c0-7.987,6.477-14.463,14.463-14.463
		H256c7.987,0,14.463,6.477,14.463,14.463S263.987,89.672,256,89.672H89.672V256C89.672,263.987,83.196,270.463,75.209,270.463z"/>
</g>
<polygon style="fill:#F4B2B0;" points="378.625,324.125 310.501,256 378.625,187.875 324.125,133.375 256,201.499 187.875,133.375 
	133.375,187.875 201.499,256 133.375,324.125 187.875,378.625 256,310.501 324.125,378.625 "/>
<path style="fill:#B3404A;" d="M324.126,393.089c-3.703,0-7.402-1.413-10.227-4.236L256,330.954l-57.898,57.898
	c-5.649,5.646-14.805,5.646-20.455,0l-54.501-54.501c-5.648-5.648-5.648-14.806,0-20.455L181.046,256l-57.898-57.898
	c-5.648-5.648-5.648-14.806,0-20.455l54.501-54.501c5.649-5.646,14.805-5.646,20.455,0L256,181.046l57.898-57.898
	c5.649-5.646,14.805-5.646,20.455,0l54.501,54.501c5.648,5.648,5.648,14.806,0,20.455L330.954,256l57.898,57.898
	c5.648,5.648,5.648,14.806,0,20.455l-54.501,54.501C331.529,391.677,327.828,393.089,324.126,393.089z M256,296.037
	c3.703,0,7.402,1.413,10.227,4.236l57.898,57.898l34.045-34.045l-57.898-57.898c-5.648-5.648-5.648-14.806,0-20.455l57.898-57.898
	l-34.045-34.045l-57.898,57.898c-5.649,5.646-14.805,5.646-20.455,0l-57.898-57.898l-34.045,34.045l57.898,57.898
	c5.648,5.648,5.648,14.806,0,20.455l-57.898,57.898l34.045,34.045l57.898-57.898C248.598,297.449,252.297,296.037,256,296.037z"/>
<g>
</g>
<g>
</g>
<g>
</g>
<g>
</g>
<g>
</g>
<g>
</g>
<g>
</g>
<g>
</g>
<g>
</g>
<g>
</g>
<g>
</g>
<g>
</g>
<g>
</g>
<g>
</g>
<g>
</g>
</svg>
