<?xml version="1.0" encoding="iso-8859-1"?>
<!-- Generator: Adobe Illustrator 19.0.0, SVG Export Plug-In . SVG Version: 6.00 Build 0)  -->
<svg version="1.1" id="Layer_1" xmlns="http://www.w3.org/2000/svg" xmlns:xlink="http://www.w3.org/1999/xlink" x="0px" y="0px"
	 viewBox="0 0 512 512" style="enable-background:new 0 0 512 512;" xml:space="preserve">
<circle style="fill:#F4B2B0;" cx="255.997" cy="179.367" r="98.185"/>
<path style="fill:#B3404A;" d="M256,292.775c-62.531,0-113.403-50.872-113.403-113.403S193.469,65.967,256,65.967
	s113.403,50.872,113.403,113.405C369.403,241.902,318.531,292.775,256,292.775z M256,96.412c-45.744,0-82.958,37.216-82.958,82.96
	s37.214,82.958,82.958,82.958s82.958-37.214,82.958-82.958S301.744,96.412,256,96.412z"/>
<path style="fill:#F4B2B0;" d="M390.656,395.362h-72.719l-61.937,66.454c0,0-28.538-26.239-61.77-66.454h-72.885L87.518,496.776
	H424.48L390.656,395.362z"/>
<g>
	<path style="fill:#B3404A;" d="M438.923,491.961l-33.827-101.414c-2.073-6.215-7.89-10.406-14.44-10.406h-72.719
		c-4.223,0-8.257,1.754-11.135,4.844l-51.341,55.084c-35.779-35.781-147.791-156.207-147.791-261.291
		c0-23.249,5.223-45.503,15.521-66.14c3.755-7.521,0.7-16.664-6.821-20.418c-7.528-3.754-16.666-0.699-20.418,6.823
		c-12.426,24.896-18.727,51.725-18.727,79.736c0,70.964,42.85,145.189,85.357,201.363h-41.236c-6.552,0-12.367,4.191-14.44,10.406
		L73.078,491.961c-1.548,4.641-0.77,9.745,2.09,13.715c2.862,3.97,7.456,6.323,12.35,6.323h336.964c4.894,0,9.488-2.352,12.35-6.323
		C439.693,501.707,440.47,496.602,438.923,491.961z M108.642,481.555l23.673-70.969h54.611
		c30.497,36.204,56.122,60.001,58.773,62.438c0.374,0.344,0.763,0.664,1.16,0.964c0.145,0.11,0.298,0.202,0.446,0.304
		c0.257,0.18,0.513,0.362,0.779,0.524c0.189,0.116,0.382,0.213,0.574,0.318c0.234,0.129,0.466,0.263,0.706,0.379
		c0.212,0.102,0.426,0.189,0.641,0.28c0.228,0.097,0.455,0.199,0.687,0.286c0.224,0.084,0.451,0.151,0.677,0.224
		c0.23,0.073,0.458,0.149,0.69,0.212c0.23,0.061,0.46,0.11,0.691,0.16c0.236,0.052,0.469,0.104,0.706,0.143
		c0.23,0.04,0.461,0.067,0.693,0.094c0.241,0.029,0.481,0.058,0.723,0.076c0.23,0.017,0.458,0.024,0.688,0.032
		c0.148,0.005,0.294,0.02,0.441,0.02c0.099,0,0.198-0.012,0.297-0.014c0.225-0.005,0.449-0.017,0.674-0.03
		c0.248-0.015,0.496-0.037,0.744-0.064c0.224-0.026,0.444-0.056,0.667-0.091c0.247-0.04,0.492-0.084,0.735-0.135
		c0.222-0.046,0.443-0.096,0.662-0.152c0.239-0.061,0.475-0.129,0.711-0.202c0.222-0.069,0.443-0.14,0.662-0.218
		c0.227-0.082,0.451-0.172,0.674-0.265c0.222-0.091,0.443-0.186,0.662-0.288c0.213-0.1,0.422-0.21,0.63-0.321
		c0.221-0.117,0.441-0.234,0.656-0.362c0.199-0.119,0.394-0.25,0.589-0.378c0.213-0.14,0.426-0.28,0.635-0.432
		c0.195-0.143,0.384-0.3,0.572-0.454c0.193-0.157,0.388-0.311,0.575-0.478c0.041-0.037,0.087-0.069,0.128-0.107
		c1.099-1.006,27.18-24.976,58.783-62.461h54.626l23.673,70.969H108.642V481.555z"/>
	<path style="fill:#B3404A;" d="M168.291,59.141C193.85,40.369,224.181,30.445,256,30.445c81.789,0,148.331,66.541,148.331,148.331
		c0,44.622-19.888,96.76-59.114,154.973c-4.698,6.972-2.854,16.431,4.118,21.13c2.609,1.758,5.565,2.6,8.493,2.6
		c4.893,0,9.698-2.355,12.638-6.718c42.673-63.329,64.311-121.192,64.311-171.985C434.777,80.2,354.578,0,256,0
		c-38.349,0-74.911,11.965-105.732,34.604c-6.776,4.976-8.234,14.504-3.258,21.28C151.99,62.66,161.517,64.117,168.291,59.141z"/>
</g>
<g>
</g>
<g>
</g>
<g>
</g>
<g>
</g>
<g>
</g>
<g>
</g>
<g>
</g>
<g>
</g>
<g>
</g>
<g>
</g>
<g>
</g>
<g>
</g>
<g>
</g>
<g>
</g>
<g>
</g>
</svg>
